<svg fill="none" height="33" viewBox="0 0 172 33" width="172" xmlns="http://www.w3.org/2000/svg"><path d="m151.256 16.64c-.884-.5831-1.858-.9977-2.78-1.516-.598-.3369-1.235-.635-1.754-1.0626-.884-.7256-.702-2.1509.221-2.7729 1.325-.8811 3.52-.3888 3.754 1.4124 0 .0388.039.0648.078.0648h2.001c.052 0 .091-.0389.078-.0907-.104-1.244-.585-2.2806-1.468-2.94145-.845-.63493-1.806-.97183-2.833-.97183-5.287 0-5.768 5.58478-2.923 7.34708.325.2073 3.118 1.6067 4.106 2.2157.987.609 1.299 1.7234.87 2.6045-.39.8034-1.403 1.3606-2.416 1.2958-1.105-.0648-1.962-.6608-2.261-1.5938-.052-.1684-.078-.4924-.078-.6349 0-.0389-.039-.0778-.078-.0778h-2.169c-.039 0-.078.0389-.078.0778 0 1.5679.39 2.436 1.455 3.2265 1 .7515 2.091 1.0625 3.222 1.0625 2.962 0 4.495-1.6716 4.806-3.4079.273-1.6975-.233-3.2265-1.753-4.2372z" fill="#161616"/><path d="m57.0569 9.04688h-.9613-1.0523c-.039 0-.065.02591-.078.05183l-1.7797 5.85689c-.026.0778-.1299.0778-.1559 0l-1.7798-5.85689c-.013-.03888-.039-.05183-.078-.05183h-1.0522-.9614-1.2991c-.039 0-.078.03887-.078.07774v14.95328c0 .0388.039.0777.078.0777h2.1695c.039 0 .078-.0389.078-.0777v-11.364c0-.0907.1299-.1036.1559-.0259l1.7927 5.8958.1299.4146c.013.0389.039.0519.078.0519h1.6629c.0389 0 .0649-.026.0779-.0519l.1299-.4146 1.7928-5.8958c.026-.0907.1559-.0648.1559.0259v11.364c0 .0388.039.0777.0779.0777h2.1696c.0389 0 .0779-.0389.0779-.0777v-14.95328c0-.03887-.039-.07774-.0779-.07774z" fill="#161616"/><path d="m118.037 9.04688c-.039 0-.065.02591-.078.05183l-1.779 5.85689c-.026.0778-.13.0778-.156 0l-1.78-5.85689c-.013-.03888-.039-.05183-.078-.05183h-3.3c-.039 0-.078.03887-.078.07774v14.95328c0 .0388.039.0777.078.0777h2.17c.039 0 .078-.0389.078-.0777v-11.364c0-.0907.13-.1036.156-.0259l1.792 5.8958.13.4146c.013.0389.039.0519.078.0519h1.663c.039 0 .065-.026.078-.0519l.13-.4146 1.793-5.8958c.026-.0907.156-.0648.156.0259v11.364c0 .0388.039.0777.078.0777h2.169c.039 0 .078-.0389.078-.0777v-14.95328c0-.03887-.039-.07774-.078-.07774z" fill="#161616"/><path d="m90.0543 9.04688h-4.0403-2.1695-4.0402c-.039 0-.078.03887-.078.07774v1.86588c0 .0389.039.0778.078.0778h3.9623v13.0096c0 .0388.0389.0777.0779.0777h2.1695c.039 0 .078-.0389.078-.0777v-13.0096h3.9623c.039 0 .0779-.0389.0779-.0778v-1.86588c0-.03887-.0259-.07774-.0779-.07774z" fill="#161616"/><path d="m102.851 24.1554h1.974c.052 0 .091-.0518.078-.1036l-4.079-15.0051c-.013-.03887-.039-.05183-.078-.05183h-.7533-1.3251-.7535c-.039 0-.065.02592-.078.05183l-4.0792 15.0051c-.013.0518.026.1036.078.1036h1.9746c.039 0 .065-.0259.078-.0518l1.1822-4.3668c.0129-.0388.0389-.0518.0779-.0518h4.3654c.039 0 .065.0259.078.0518l1.182 4.3668c.013.0259.052.0518.078.0518zm-5.1838-6.6084 1.585-5.844c.0259-.0777.1299-.0777.1559 0l1.5849 5.844c.013.0518-.026.1036-.078.1036h-3.1698c-.052 0-.0909-.0518-.078-.1036z" fill="#161616"/><path d="m136.524 24.1554h1.974c.052 0 .091-.0518.078-.1036l-4.079-15.0051c-.013-.03887-.039-.05183-.078-.05183h-.753-1.325-.754c-.039 0-.065.02592-.078.05183l-4.079 15.0051c-.013.0518.026.1036.078.1036h1.975c.039 0 .065-.0259.078-.0518l1.182-4.3668c.013-.0388.039-.0518.078-.0518h4.365c.039 0 .065.0259.078.0518l1.182 4.3668c.013.0259.039.0518.078.0518zm-5.184-6.6084 1.585-5.844c.026-.0777.13-.0777.156 0l1.585 5.844c.013.0518-.026.1036-.078.1036h-3.17c-.052 0-.091-.0518-.078-.1036z" fill="#161616"/><path d="m67.216 21.9398v-4.6389c0-.0388.039-.0777.078-.0777h5.781c.039 0 .078-.0389.078-.0778v-1.8659c0-.0388-.039-.0777-.078-.0777h-5.781c-.039 0-.078-.0389-.078-.0778v-3.965c0-.0389.039-.0778.078-.0778h6.5735c.039 0 .078-.0389.078-.0777v-1.86594c0-.03887-.039-.07775-.078-.07775h-6.6515-2.2474c-.039 0-.078.03888-.078.07775v1.94364 4.1335 2.0215 4.7943 2.0473c0 .0389.039.0778.078.0778h2.2474 6.9243c.039 0 .078-.0389.078-.0778v-1.9695c0-.0389-.039-.0778-.078-.0778h-6.8593c-.039-.0129-.065-.0389-.065-.0907z" fill="#161616"/><path d="m171.08 24.026-7.509-7.7358c-.026-.0259-.026-.0777 0-.1036l6.756-6.99721c.052-.05183.013-.12958-.052-.12958h-2.767c-.026 0-.039.01296-.052.02592l-5.729 5.93467c-.052.0518-.13.0129-.13-.0519v-5.83094c0-.03887-.039-.07775-.078-.07775h-2.17c-.039 0-.078.03888-.078.07775v14.95324c0 .0389.039.0778.078.0778h2.17c.039 0 .078-.0389.078-.0778v-6.5825c0-.0648.091-.1037.13-.0519l6.495 6.6862c.013.013.039.026.052.026h2.767c.052-.013.091-.1037.039-.1426z" fill="#161616"/><g stroke-linecap="round" stroke-linejoin="round" stroke-width=".25"><path d="m32.9583 1-13.1341 9.7183 2.4424-5.72731z" fill="#e17726" stroke="#e17726"/><path d="m2.66284 1 13.01716 9.809-2.3254-5.81802z" fill="#e27625" stroke="#e27625"/><path d="m28.2292 23.5334-3.4946 5.3386 7.4829 2.0603 2.1436-7.2822z" fill="#e27625" stroke="#e27625"/><path d="m1.27271 23.6501 2.13054 7.2822 7.46995-2.0603-3.48166-5.3386z" fill="#e27625" stroke="#e27625"/><path d="m10.4704 14.5149-2.07855 3.1358 7.40495.3369-.2468-7.969z" fill="#e27625" stroke="#e27625"/><path d="m25.1503 14.515-5.1574-4.58702-.1689 8.05972 7.4049-.3369z" fill="#e27625" stroke="#e27625"/><path d="m10.8733 28.872 4.4819-2.1639-3.8583-3.0062z" fill="#e27625" stroke="#e27625"/><path d="m20.2659 26.7081 4.4689 2.1639-.6106-5.1701z" fill="#e27625" stroke="#e27625"/><path d="m24.7348 28.8722-4.4689-2.1639.3637 2.9025-.039 1.231z" fill="#d5bfb2" stroke="#d5bfb2"/><path d="m10.8733 28.8722 4.1572 1.9696-.026-1.231.3507-2.9025z" fill="#d5bfb2" stroke="#d5bfb2"/><path d="m15.1083 21.7842-3.7155-1.0884 2.6242-1.2051z" fill="#233447" stroke="#233447"/><path d="m20.5127 21.7842 1.0913-2.2935 2.6372 1.2051z" fill="#233447" stroke="#233447"/><path d="m10.8732 28.872.6496-5.3386-4.1312.1167z" fill="#cc6228" stroke="#cc6228"/><path d="m24.0981 23.5334.6366 5.3386 3.4946-5.2219z" fill="#cc6228" stroke="#cc6228"/><path d="m27.2289 17.6506-7.4049.3369.6885 3.7967 1.0913-2.2936 2.6372 1.2051z" fill="#cc6228" stroke="#cc6228"/><path d="m11.3928 20.6957 2.6242-1.2051 1.0913 2.2936.6885-3.7967-7.40495-.3369z" fill="#cc6228" stroke="#cc6228"/><path d="m8.39209 17.6506 3.10491 6.0513-.104-3.0062z" fill="#e27525" stroke="#e27525"/><path d="m24.2412 20.6957-.1169 3.0062 3.1049-6.0513z" fill="#e27525" stroke="#e27525"/><path d="m15.7972 17.9875-.6886 3.7967.8704 4.4833.1949-5.9087z" fill="#e27525" stroke="#e27525"/><path d="m19.8242 17.9875-.3638 2.3584.1819 5.9216.8704-4.4833z" fill="#e27525" stroke="#e27525"/><path d="m20.5127 21.7843-.8704 4.4833.6236.4406 3.8584-3.0062.1169-3.0062z" fill="#f5841f" stroke="#f5841f"/><path d="m11.3928 20.6958.104 3.0062 3.8583 3.0062.6236-.4406-.8704-4.4833z" fill="#f5841f" stroke="#f5841f"/><path d="m20.5907 30.8417.0389-1.231-.3377-.2851h-4.9626l-.3248.2851.026 1.231-4.1572-1.9696 1.455 1.1921 2.949 2.0344h5.0535l2.962-2.0344 1.442-1.1921z" fill="#c0ac9d" stroke="#c0ac9d"/><path d="m20.2658 26.7081-.6236-.4405h-3.6635l-.6235.4405-.3508 2.9026.3248-.2851h4.9626l.3378.2851z" fill="#161616" stroke="#161616"/><path d="m33.5168 11.3532 1.1043-5.36447-1.6629-4.98873-12.6923 9.3944 4.8846 4.1205 6.8983 2.0085 1.52-1.7752-.6625-.4795 1.0522-.9588-.8054-.622 1.0523-.8034z" fill="#763e1a" stroke="#763e1a"/><path d="m1 5.98873 1.11724 5.36447-.71451.5313 1.06527.8034-.80545.622 1.05228.9588-.66255.4795 1.51997 1.7752 6.89835-2.0085 4.8846-4.1205-12.69233-9.3944z" fill="#763e1a" stroke="#763e1a"/><path d="m32.0489 16.5233-6.8983-2.0084 2.0786 3.1358-3.1049 6.0512 4.1052-.0518h6.1318z" fill="#f5841f" stroke="#f5841f"/><path d="m10.4704 14.5149-6.89826 2.0084-2.29943 7.1268h6.11883l4.10516.0518-3.10484-6.0512z" fill="#f5841f" stroke="#f5841f"/><path d="m19.8241 17.9876.4417-7.5933 2.0006-5.40333h-8.9119l2.0006 5.40333.4417 7.5933.1689 2.3842.013 5.8958h3.6635l.013-5.8958z" fill="#f5841f" stroke="#f5841f"/></g></svg>